<svg width="22" height="22" viewBox="0 0 22 22" fill="none" xmlns="http://www.w3.org/2000/svg">
<path fill-rule="evenodd" clip-rule="evenodd" d="M14.0122 17.6675L11.0874 18.9966C10.8437 19.1074 10.556 19.055 10.3667 18.8657C10.1778 18.6764 10.1262 18.3895 10.2368 18.146L11.5659 15.2212L14.0122 17.6675ZM18.2398 8.26906C18.4906 8.01846 18.8972 8.01831 19.148 8.26906L20.9644 10.0855C21.2151 10.3362 21.2149 10.7428 20.9644 10.9937L15.0601 16.898L12.3355 14.1734L18.2398 8.26906Z" fill="white"/>
<path d="M2.99707 2.86914V3.72559C2.99728 4.78776 3.86165 5.65217 4.92383 5.65234H11.7754C12.8376 5.65219 13.7019 4.78777 13.7021 3.72559V2.86914H16.0566C16.4112 2.86914 16.699 3.1562 16.6992 3.51074V7.99219L10.9727 13.7188C10.8089 13.8825 10.6772 14.0728 10.5811 14.2842L9.06738 17.6143C8.73687 18.3414 8.89425 19.2097 9.45898 19.7744C9.82288 20.1383 10.3066 20.3388 10.8213 20.3389C11.0981 20.3389 11.367 20.2806 11.6191 20.166L14.9492 18.6523C15.1603 18.5564 15.3507 18.4247 15.5146 18.2607L16.6992 17.0752V21.2812C16.699 21.6357 16.4112 21.9229 16.0566 21.9229H0.642578C0.288022 21.9229 0.000246435 21.6357 0 21.2812V3.51074C0.000199243 3.1562 0.287993 2.86914 0.642578 2.86914H2.99707ZM8.37598 15.8174C8.12515 15.5666 7.71856 15.5666 7.46777 15.8174L5.78027 17.5039L5.16406 16.8877C4.91323 16.6369 4.50665 16.6369 4.25586 16.8877C4.00525 17.1385 4.0051 17.5451 4.25586 17.7959L5.32617 18.8662C5.45148 18.9916 5.61598 19.0546 5.78027 19.0547C5.94457 19.0547 6.10898 18.9915 6.23438 18.8662L8.37598 16.7256C8.62667 16.4749 8.62639 16.0682 8.37598 15.8174ZM2.56934 17.5557C2.21463 17.5557 1.92676 17.8435 1.92676 18.1982C1.92696 18.5528 2.21475 18.8398 2.56934 18.8398C2.92382 18.8397 3.21073 18.5527 3.21094 18.1982C3.21094 17.8436 2.92395 17.5558 2.56934 17.5557ZM8.37598 11.6426C8.12515 11.3917 7.71856 11.3917 7.46777 11.6426L5.78027 13.3291L5.16406 12.7129C4.91323 12.4621 4.50665 12.4621 4.25586 12.7129C4.00523 12.9637 4.00505 13.3703 4.25586 13.6211L5.32617 14.6914C5.45147 14.8168 5.61603 14.8798 5.78027 14.8799C5.94452 14.8799 6.10898 14.8167 6.23438 14.6914L8.37598 12.5508C8.62667 12.3001 8.62639 11.8934 8.37598 11.6426ZM2.56934 13.3809C2.21463 13.3809 1.92676 13.6687 1.92676 14.0234C1.92696 14.378 2.21475 14.665 2.56934 14.665C2.92382 14.6649 3.21073 14.3779 3.21094 14.0234C3.21094 13.6688 2.92395 13.381 2.56934 13.3809ZM8.37598 7.4668C8.1253 7.21619 7.71858 7.21646 7.46777 7.4668L5.78027 9.1543L5.16406 8.53809C4.91323 8.28726 4.50665 8.28726 4.25586 8.53809C4.00523 8.78889 4.0051 9.19557 4.25586 9.44629L5.32617 10.5166C5.45148 10.642 5.61598 10.705 5.78027 10.7051C5.94457 10.7051 6.10898 10.6419 6.23438 10.5166L8.37598 8.37598C8.62681 8.12515 8.62681 7.71763 8.37598 7.4668ZM2.56934 9.20605C2.21463 9.20605 1.92676 9.49392 1.92676 9.84863C1.92696 10.2032 2.21475 10.4902 2.56934 10.4902C2.92382 10.4901 3.21073 10.2031 3.21094 9.84863C3.21094 9.49399 2.92395 9.20616 2.56934 9.20605ZM10.0625 0C10.4172 6.86715e-05 10.7051 0.287912 10.7051 0.642578V1.37012H11.7754C12.13 1.37027 12.417 1.65808 12.417 2.0127V3.72559C12.4168 4.08003 12.1298 4.36704 11.7754 4.36719H4.92383C4.5694 4.36701 4.28243 4.08001 4.28223 3.72559V2.0127C4.28223 1.65809 4.56927 1.37029 4.92383 1.37012H5.99414V0.642578C5.99414 0.287927 6.28209 9.35696e-05 6.63672 0H10.0625Z" fill="white"/>
</svg>
